<svg width="16" height="18" xmlns="http://www.w3.org/2000/svg" xmlns:xlink="http://www.w3.org/1999/xlink" xml:space="preserve" overflow="hidden"><g transform="translate(-210 -374)"><g><g><g><g><path d="M7.5 11.875C7.15481 11.877 6.87337 11.5988 6.87138 11.2536 6.87038 11.0857 6.937 10.9245 7.05625 10.8063L10.3687 7.5 7.05625 4.19375C6.83175 3.93158 6.86225 3.53702 7.12444 3.3125 7.35844 3.11212 7.7035 3.11212 7.9375 3.3125L11.6875 7.0625C11.9298 7.30625 11.9298 7.7 11.6875 7.94375L7.9375 11.6937C7.82106 11.8092 7.66394 11.8743 7.5 11.875Z" fill="#000000" fill-rule="nonzero" fill-opacity="1" transform="matrix(6.53145e-17 1.06667 -1 6.12323e-17 226 375)"/><path d="M3.75 11.875C3.40482 11.877 3.12338 11.5988 3.12138 11.2536 3.1204 11.0857 3.18703 10.9245 3.30625 10.8063L6.61875 7.5 3.30625 4.19375C3.06118 3.94868 3.06118 3.55132 3.30625 3.30625 3.55132 3.06118 3.94868 3.06118 4.19375 3.30625L7.94375 7.05625C8.18606 7.3 8.18606 7.69375 7.94375 7.9375L4.19375 11.6875C4.07683 11.8068 3.91703 11.8743 3.75 11.875Z" fill="#000000" fill-rule="nonzero" fill-opacity="1" transform="matrix(6.53145e-17 1.06667 -1 6.12323e-17 226 375)"/></g></g></g></g></g></svg>