<svg width="15" height="14" xmlns="http://www.w3.org/2000/svg" xmlns:xlink="http://www.w3.org/1999/xlink" xml:space="preserve" overflow="hidden"><defs><clipPath id="clip0"><rect x="473" y="4928" width="15" height="14"/></clipPath><clipPath id="clip1"><rect x="473" y="4928" width="15" height="14"/></clipPath><clipPath id="clip2"><rect x="474" y="4928" width="14" height="14"/></clipPath><clipPath id="clip3"><rect x="474" y="4928" width="14" height="14"/></clipPath><clipPath id="clip4"><rect x="474" y="4928" width="14" height="14"/></clipPath></defs><g clip-path="url(#clip0)" transform="translate(-473 -4928)"><g clip-path="url(#clip1)"><g clip-path="url(#clip2)"><g clip-path="url(#clip3)"><g clip-path="url(#clip4)"><path d="M481 4928C477.134 4928 474 4931.13 474 4935 474 4938.87 477.134 4942 481 4942 484.866 4942 488 4938.87 488 4935 487.996 4931.14 484.864 4928 481 4928ZM481 4941.3C477.521 4941.3 474.7 4938.48 474.7 4935 474.7 4931.52 477.521 4928.7 481 4928.7 484.479 4928.7 487.3 4931.52 487.3 4935 487.296 4938.48 484.478 4941.3 481 4941.3Z" fill="#FFC100" fill-rule="nonzero" fill-opacity="1"/><path d="M480.18 4932.29C480.035 4932.16 479.814 4932.17 479.686 4932.32 479.559 4932.47 479.574 4932.69 479.72 4932.81L482.219 4935 479.72 4937.19C479.574 4937.31 479.559 4937.53 479.686 4937.68 479.814 4937.83 480.035 4937.84 480.18 4937.71L482.98 4935.26C483.056 4935.2 483.1 4935.1 483.1 4935 483.1 4934.9 483.056 4934.8 482.98 4934.74Z" fill="#FFC100" fill-rule="nonzero" fill-opacity="1"/></g></g></g></g></g></svg>