<svg width="55" height="50" xmlns="http://www.w3.org/2000/svg" xmlns:xlink="http://www.w3.org/1999/xlink" xml:space="preserve" overflow="hidden"><g transform="translate(-467 -4253)"><g><path d="M494.5 4254C481.543 4254 471 4264.54 471 4277.5 471 4290.46 481.543 4301 494.5 4301 507.457 4301 518 4290.46 518 4277.5 518 4264.54 507.457 4254 494.5 4254ZM507.634 4271.32 492.615 4286.22C491.732 4287.1 490.318 4287.16 489.376 4286.28L481.425 4279.03C480.482 4278.15 480.424 4276.68 481.248 4275.73 482.132 4274.79 483.604 4274.73 484.546 4275.62L490.848 4281.39 504.277 4267.96C505.219 4267.02 506.692 4267.02 507.634 4267.96 508.576 4268.9 508.576 4270.37 507.634 4271.32Z" fill="#FFC100" fill-rule="evenodd" fill-opacity="1"/></g></g></svg>