<svg width="15" height="15" xmlns="http://www.w3.org/2000/svg" xmlns:xlink="http://www.w3.org/1999/xlink" xml:space="preserve" overflow="hidden"><g transform="translate(-729 -4970)"><g><g><g><g><path d="M8.42349 7.03958 7.33472 8.13203C6.8932 8.5751 6.11635 8.58465 5.66528 8.13203L4.57646 7.03958 0.665895 10.9628C0.811459 11.0301 0.971953 11.0703 1.14258 11.0703L11.8574 11.0703C12.028 11.0703 12.1885 11.0302 12.334 10.9629L8.42349 7.03958Z" fill="#FFC100" fill-rule="nonzero" fill-opacity="1" transform="matrix(1 0 0 1.07692 730 4971)"/><path d="M11.8574 1.92969 1.14258 1.92969C0.971953 1.92969 0.811459 1.96986 0.665945 2.03717L4.84466 6.22974C4.84494 6.23002 4.84527 6.23007 4.84555 6.23035 4.84583 6.23063 4.84588 6.23101 4.84588 6.23101L6.20461 7.59423C6.34893 7.73855 6.65112 7.73855 6.79544 7.59423L8.15389 6.23124C8.15389 6.23124 8.15422 6.23063 8.1545 6.23035 8.1545 6.23035 8.15511 6.23002 8.15539 6.22974L12.334 2.03714C12.1885 1.9698 12.028 1.92969 11.8574 1.92969Z" fill="#FFC100" fill-rule="nonzero" fill-opacity="1" transform="matrix(1 0 0 1.07692 730 4971)"/><path d="M0.12152 2.56984C0.0462109 2.72213 0 2.89118 0 3.07227L0 9.92773C0 10.1088 0.0461602 10.2779 0.121494 10.4302L4.03884 6.50013 0.12152 2.56984Z" fill="#FFC100" fill-rule="nonzero" fill-opacity="1" transform="matrix(1 0 0 1.07692 730 4971)"/><path d="M12.8785 2.56979 8.96119 6.50013 12.8785 10.4302C12.9538 10.2779 13 10.1089 13 9.92773L13 3.07227C13 2.89113 12.9538 2.72208 12.8785 2.56979Z" fill="#FFC100" fill-rule="nonzero" fill-opacity="1" transform="matrix(1 0 0 1.07692 730 4971)"/></g></g></g></g></g></svg>