<svg width="19" height="19" xmlns="http://www.w3.org/2000/svg" xmlns:xlink="http://www.w3.org/1999/xlink" xml:space="preserve" overflow="hidden"><g transform="translate(-566 -3322)"><g><g><g><g><path d="M567.265 3330.41C567.119 3330.41 567 3330.29 567 3330.15 567 3330 567.119 3329.88 567.265 3329.88 567.411 3329.88 567.529 3330 567.529 3330.15 567.529 3330.29 567.411 3330.41 567.265 3330.41ZM584.735 3330.41C584.589 3330.41 584.471 3330.29 584.471 3330.15 584.471 3330 584.589 3329.88 584.735 3329.88 584.881 3329.88 585 3330 585 3330.15 585 3330.29 584.881 3330.41 584.735 3330.41ZM584.735 3326.71C584.589 3326.71 584.471 3326.59 584.471 3326.44 584.471 3326.3 584.589 3326.18 584.735 3326.18 584.881 3326.18 585 3326.3 585 3326.44 585 3326.59 584.881 3326.71 584.735 3326.71ZM584.735 3334.12C584.589 3334.12 584.471 3334 584.471 3333.85 584.471 3333.71 584.589 3333.59 584.735 3333.59 584.881 3333.59 585 3333.71 585 3333.85 585 3334 584.881 3334.12 584.735 3334.12ZM584.735 3337.82C584.589 3337.82 584.471 3337.7 584.471 3337.56 584.471 3337.41 584.589 3337.29 584.735 3337.29 584.881 3337.29 585 3337.41 585 3337.56 585 3337.7 584.881 3337.82 584.735 3337.82ZM577.588 3323.26C577.588 3323.12 577.707 3323 577.853 3323 577.999 3323 578.118 3323.12 578.118 3323.26 578.118 3323.41 577.999 3323.53 577.853 3323.53 577.707 3323.53 577.588 3323.41 577.588 3323.26ZM581.294 3323.26C581.294 3323.12 581.413 3323 581.559 3323 581.705 3323 581.824 3323.12 581.824 3323.26 581.824 3323.41 581.705 3323.53 581.559 3323.53 581.413 3323.53 581.294 3323.41 581.294 3323.26ZM573.882 3323.26C573.882 3323.12 574.001 3323 574.147 3323 574.293 3323 574.412 3323.12 574.412 3323.26 574.412 3323.41 574.293 3323.53 574.147 3323.53 574.001 3323.53 573.882 3323.41 573.882 3323.26ZM570.176 3323.26C570.176 3323.12 570.295 3323 570.441 3323 570.587 3323 570.706 3323.12 570.706 3323.26 570.706 3323.41 570.587 3323.53 570.441 3323.53 570.295 3323.53 570.176 3323.41 570.176 3323.26ZM577.588 3340.74C577.588 3340.59 577.707 3340.47 577.853 3340.47 577.999 3340.47 578.118 3340.59 578.118 3340.74 578.118 3340.88 577.999 3341 577.853 3341 577.707 3341 577.588 3340.88 577.588 3340.74ZM581.294 3340.74C581.294 3340.59 581.413 3340.47 581.559 3340.47 581.705 3340.47 581.824 3340.59 581.824 3340.74 581.824 3340.88 581.705 3341 581.559 3341 581.413 3341 581.294 3340.88 581.294 3340.74ZM573.882 3340.74C573.882 3340.59 574.001 3340.47 574.147 3340.47 574.293 3340.47 574.412 3340.59 574.412 3340.74 574.412 3340.88 574.293 3341 574.147 3341 574.001 3341 573.882 3340.88 573.882 3340.74ZM570.176 3340.74C570.176 3340.59 570.295 3340.47 570.441 3340.47 570.587 3340.47 570.706 3340.59 570.706 3340.74 570.706 3340.88 570.587 3341 570.441 3341 570.295 3341 570.176 3340.88 570.176 3340.74ZM567.265 3326.71C567.119 3326.71 567 3326.59 567 3326.44 567 3326.3 567.119 3326.18 567.265 3326.18 567.411 3326.18 567.529 3326.3 567.529 3326.44 567.529 3326.59 567.411 3326.71 567.265 3326.71ZM567.265 3334.12C567.119 3334.12 567 3334 567 3333.85 567 3333.71 567.119 3333.59 567.265 3333.59 567.411 3333.59 567.529 3333.71 567.529 3333.85 567.529 3334 567.411 3334.12 567.265 3334.12ZM567.265 3337.82C567.119 3337.82 567 3337.7 567 3337.56 567 3337.41 567.119 3337.29 567.265 3337.29 567.411 3337.29 567.529 3337.41 567.529 3337.56 567.529 3337.7 567.411 3337.82 567.265 3337.82ZM570.441 3330.68C570.149 3330.68 569.912 3330.44 569.912 3330.15 569.912 3329.86 570.149 3329.62 570.441 3329.62 570.734 3329.62 570.971 3329.86 570.971 3330.15 570.971 3330.44 570.734 3330.68 570.441 3330.68ZM581.559 3330.68C581.266 3330.68 581.029 3330.44 581.029 3330.15 581.029 3329.86 581.266 3329.62 581.559 3329.62 581.851 3329.62 582.088 3329.86 582.088 3330.15 582.088 3330.44 581.851 3330.68 581.559 3330.68ZM577.853 3326.97C577.56 3326.97 577.324 3326.73 577.324 3326.44 577.324 3326.15 577.56 3325.91 577.853 3325.91 578.145 3325.91 578.382 3326.15 578.382 3326.44 578.382 3326.73 578.145 3326.97 577.853 3326.97ZM577.853 3338.09C577.56 3338.09 577.324 3337.85 577.324 3337.56 577.324 3337.27 577.56 3337.03 577.853 3337.03 578.145 3337.03 578.382 3337.27 578.382 3337.56 578.382 3337.85 578.145 3338.09 577.853 3338.09ZM574.147 3326.97C573.855 3326.97 573.618 3326.73 573.618 3326.44 573.618 3326.15 573.855 3325.91 574.147 3325.91 574.44 3325.91 574.676 3326.15 574.676 3326.44 574.676 3326.73 574.44 3326.97 574.147 3326.97ZM577.853 3330.94C577.414 3330.94 577.059 3330.59 577.059 3330.15 577.059 3329.71 577.414 3329.35 577.853 3329.35 578.292 3329.35 578.647 3329.71 578.647 3330.15 578.647 3330.59 578.292 3330.94 577.853 3330.94ZM574.147 3330.94C573.708 3330.94 573.353 3330.59 573.353 3330.15 573.353 3329.71 573.708 3329.35 574.147 3329.35 574.586 3329.35 574.941 3329.71 574.941 3330.15 574.941 3330.59 574.586 3330.94 574.147 3330.94ZM577.853 3334.65C577.414 3334.65 577.059 3334.29 577.059 3333.85 577.059 3333.41 577.414 3333.06 577.853 3333.06 578.292 3333.06 578.647 3333.41 578.647 3333.85 578.647 3334.29 578.292 3334.65 577.853 3334.65ZM574.147 3334.65C573.708 3334.65 573.353 3334.29 573.353 3333.85 573.353 3333.41 573.708 3333.06 574.147 3333.06 574.586 3333.06 574.941 3333.41 574.941 3333.85 574.941 3334.29 574.586 3334.65 574.147 3334.65ZM574.147 3338.09C573.855 3338.09 573.618 3337.85 573.618 3337.56 573.618 3337.27 573.855 3337.03 574.147 3337.03 574.44 3337.03 574.676 3337.27 574.676 3337.56 574.676 3337.85 574.44 3338.09 574.147 3338.09ZM570.441 3326.71C570.295 3326.71 570.176 3326.59 570.176 3326.44 570.176 3326.3 570.295 3326.18 570.441 3326.18 570.587 3326.18 570.706 3326.3 570.706 3326.44 570.706 3326.59 570.587 3326.71 570.441 3326.71ZM581.559 3326.71C581.413 3326.71 581.294 3326.59 581.294 3326.44 581.294 3326.3 581.413 3326.18 581.559 3326.18 581.705 3326.18 581.824 3326.3 581.824 3326.44 581.824 3326.59 581.705 3326.71 581.559 3326.71ZM570.441 3334.38C570.149 3334.38 569.912 3334.14 569.912 3333.85 569.912 3333.56 570.149 3333.32 570.441 3333.32 570.734 3333.32 570.971 3333.56 570.971 3333.85 570.971 3334.14 570.734 3334.38 570.441 3334.38ZM581.559 3334.38C581.266 3334.38 581.029 3334.14 581.029 3333.85 581.029 3333.56 581.266 3333.32 581.559 3333.32 581.851 3333.32 582.088 3333.56 582.088 3333.85 582.088 3334.14 581.851 3334.38 581.559 3334.38ZM570.441 3337.82C570.295 3337.82 570.176 3337.7 570.176 3337.56 570.176 3337.41 570.295 3337.29 570.441 3337.29 570.587 3337.29 570.706 3337.41 570.706 3337.56 570.706 3337.7 570.587 3337.82 570.441 3337.82ZM581.559 3337.82C581.413 3337.82 581.294 3337.7 581.294 3337.56 581.294 3337.41 581.413 3337.29 581.559 3337.29 581.705 3337.29 581.824 3337.41 581.824 3337.56 581.824 3337.7 581.705 3337.82 581.559 3337.82Z" fill="#000000" fill-rule="evenodd" fill-opacity="1"/></g></g></g></g></g></svg>