<svg width="26" height="24" xmlns="http://www.w3.org/2000/svg" xmlns:xlink="http://www.w3.org/1999/xlink" xml:space="preserve" overflow="hidden"><g transform="translate(-562 -3458)"><g><g><g><g><path d="M20.6747 16.0264 19.9364 16.3806 20.3757 17.3466 18.17 16.0264 18.17 8.694 11.914 4.9933 11.914 3.1786 12.5143 4.0503 13.1606 3.5903 11.5 1.15 9.8394 3.5788 10.4857 4.0388 11.109 3.1671 11.109 4.9818 4.8622 8.694 4.8622 16.0264 2.6473 17.3466 3.0636 16.3806 2.3253 16.0264 1.15 18.7151 4.0089 18.9727 4.0779 18.1493 3.0406 18.055 5.2302 16.7578 11.109 20.2239 11.109 21.85 11.914 21.85 11.914 20.2239 17.7698 16.7578 19.9594 18.055 18.9451 18.1493 19.0141 18.9727 21.85 18.7151ZM9.9567 7.774 6.7367 9.5427 6.7367 13.6827 9.9567 11.9163ZM9.1494 11.4287 7.5394 12.3027 7.5394 10.0372 9.1494 9.1655ZM11.5 13.0801 12.5833 13.7172 7.1438 16.9234 6.0605 16.3093ZM13.3906 14.1887 14.7039 14.9891 9.2644 18.1953 7.9511 17.4179ZM15.5112 15.4606 16.9395 16.3093 11.5 19.4925 10.0717 18.6668ZM17.3512 9.1655 17.3512 15.5779 11.914 12.3717 11.914 5.9317ZM11.1044 5.9455 11.1044 12.3855 5.6672 15.5779 5.6672 9.1655Z" fill="#000000" fill-rule="nonzero" fill-opacity="1" transform="matrix(1.04348 0 0 1 563 3459)"/></g></g></g></g></g></svg>