<svg width="20" height="20" xmlns="http://www.w3.org/2000/svg" xmlns:xlink="http://www.w3.org/1999/xlink" xml:space="preserve" overflow="hidden"><g transform="translate(-564 -3392)"><g><g><g><g><path d="M582.878 3392 569.691 3392C569.537 3392 569.413 3392.12 569.413 3392.28 569.413 3392.43 569.537 3392.56 569.691 3392.56L582.878 3392.56C582.992 3392.56 583.085 3392.65 583.085 3392.76L583.085 3397.35 582.455 3397.35 582.455 3393.47C582.455 3393.31 582.33 3393.19 582.176 3393.19L566.824 3393.19C566.67 3393.19 566.545 3393.31 566.545 3393.47L566.545 3405.71C566.545 3405.87 566.67 3405.99 566.824 3405.99L568.792 3405.99 568.792 3406.62 566.122 3406.62C566.008 3406.62 565.915 3406.53 565.915 3406.42L565.915 3392.76C565.915 3392.65 566.008 3392.56 566.122 3392.56L568.578 3392.56C568.732 3392.56 568.856 3392.43 568.856 3392.28 568.856 3392.12 568.732 3392 568.578 3392L566.122 3392C565.701 3392 565.358 3392.34 565.358 3392.76L565.358 3406.42C565.358 3406.84 565.701 3407.18 566.122 3407.18L576.121 3407.18C576.236 3407.18 576.329 3407.27 576.329 3407.39L576.329 3410.24C576.329 3410.66 576.672 3411 577.094 3411L579.261 3411C579.415 3411 579.54 3410.88 579.54 3410.72 579.54 3410.57 579.415 3410.44 579.261 3410.44L577.094 3410.44C576.979 3410.44 576.886 3410.35 576.886 3410.24L576.886 3407.39C576.886 3406.97 576.543 3406.62 576.121 3406.62L573.217 3406.62 573.217 3405.99 576.121 3405.99C576.891 3405.99 577.517 3406.62 577.517 3407.39L577.517 3409.53C577.517 3409.69 577.641 3409.81 577.795 3409.81L582.176 3409.81C582.33 3409.81 582.455 3409.69 582.455 3409.53L582.455 3401.78 583.085 3401.78 583.085 3410.24C583.085 3410.35 582.992 3410.44 582.878 3410.44L580.004 3410.44C579.85 3410.44 579.725 3410.57 579.725 3410.72 579.725 3410.88 579.85 3411 580.004 3411L582.878 3411C583.299 3411 583.642 3410.66 583.642 3410.24L583.642 3392.76C583.642 3392.34 583.299 3392 582.878 3392ZM581.898 3407.62 580.754 3407.62C580.621 3407.62 580.513 3407.51 580.513 3407.38L580.513 3404.21C580.513 3404.08 580.621 3403.97 580.754 3403.97L581.898 3403.97ZM580.639 3393.74 580.639 3394.06C580.639 3394.33 580.421 3394.55 580.152 3394.55L579.046 3394.55C578.777 3394.55 578.558 3394.33 578.558 3394.06L578.558 3393.74ZM576.732 3393.82 576.732 3395.27C576.732 3395.58 576.48 3395.83 576.171 3395.83 575.862 3395.83 575.61 3395.58 575.61 3395.27L575.61 3393.82ZM568.739 3394.98 571.616 3394.98 571.616 3398.36 568.739 3398.36ZM571.616 3393.74 571.616 3394.42 568.739 3394.42 568.739 3393.74ZM571.718 3402.29 571.718 3404.05 568.337 3404.05 568.337 3402.29ZM567.781 3404.05 567.102 3404.05 567.102 3402.29 567.781 3402.29ZM572.661 3406.62 569.349 3406.62 569.349 3405.99 572.661 3405.99ZM578.073 3409.26 578.073 3407.39C578.073 3406.31 577.198 3405.44 576.121 3405.44L575.337 3405.44 575.337 3401.45 578.749 3401.45 578.749 3401.55C578.749 3401.7 578.873 3401.82 579.027 3401.82 579.181 3401.82 579.305 3401.7 579.305 3401.55L579.305 3400.76C579.305 3400.6 579.181 3400.48 579.027 3400.48 578.873 3400.48 578.749 3400.6 578.749 3400.76L578.749 3400.89 575.059 3400.89C574.905 3400.89 574.781 3401.02 574.781 3401.17L574.781 3405.44 567.102 3405.44 567.102 3404.61 571.777 3404.61C572.051 3404.61 572.274 3404.39 572.274 3404.11L572.274 3402.23C572.274 3401.96 572.051 3401.73 571.777 3401.73L567.102 3401.73 567.102 3401.04 572.2 3401.04 572.2 3401.11C572.2 3401.26 572.325 3401.39 572.478 3401.39 572.632 3401.39 572.757 3401.26 572.757 3401.11L572.757 3400.4C572.757 3400.25 572.632 3400.13 572.478 3400.13 572.325 3400.13 572.2 3400.25 572.2 3400.4L572.2 3400.48 567.102 3400.48 567.102 3393.74 568.183 3393.74 568.183 3398.42C568.183 3398.69 568.406 3398.92 568.68 3398.92L571.676 3398.92C571.95 3398.92 572.173 3398.69 572.173 3398.42L572.173 3393.74 573.662 3393.74 573.662 3398.36 573.594 3398.36C573.44 3398.36 573.316 3398.48 573.316 3398.64 573.316 3398.79 573.44 3398.92 573.594 3398.92L574.298 3398.92C574.451 3398.92 574.576 3398.79 574.576 3398.64 574.576 3398.48 574.451 3398.36 574.298 3398.36L574.218 3398.36 574.218 3393.74 575.054 3393.74 575.054 3395.27C575.054 3395.88 575.555 3396.39 576.171 3396.39 576.787 3396.39 577.288 3395.88 577.288 3395.27L577.288 3393.74 578.001 3393.74 578.001 3394.06C578.001 3394.63 578.47 3395.1 579.046 3395.1L580.152 3395.1C580.728 3395.1 581.196 3394.63 581.196 3394.06L581.196 3393.74 581.898 3393.74 581.898 3403.41 580.754 3403.41C580.314 3403.41 579.956 3403.77 579.956 3404.21L579.956 3407.38C579.956 3407.82 580.314 3408.18 580.754 3408.18L581.898 3408.18 581.898 3409.26ZM582.455 3401.22 582.455 3397.91 583.085 3397.91 583.085 3401.22Z" fill="#000000" fill-rule="nonzero" fill-opacity="1"/><path d="M580.689 3397.85C580.689 3397.31 580.244 3396.86 579.696 3396.86 579.149 3396.86 578.704 3397.31 578.704 3397.85 578.704 3398.4 579.149 3398.85 579.696 3398.85 580.244 3398.85 580.689 3398.4 580.689 3397.85ZM579.696 3398.29C579.456 3398.29 579.26 3398.09 579.26 3397.85 579.26 3397.61 579.456 3397.42 579.696 3397.42 579.937 3397.42 580.132 3397.61 580.132 3397.85 580.132 3398.09 579.937 3398.29 579.696 3398.29Z" fill="#000000" fill-rule="nonzero" fill-opacity="1"/></g></g></g></g></g></svg>