<svg width="21" height="21" xmlns="http://www.w3.org/2000/svg" xmlns:xlink="http://www.w3.org/1999/xlink" xml:space="preserve" overflow="hidden"><g transform="translate(-565 -3252)"><g><g><g><g><path d="M17.0711 2.92891C15.1823 1.0402 12.6711 0 10 0 7.32891 0 4.81766 1.0402 2.92891 2.92891 1.04016 4.81762 0 7.32891 0 10 0 12.6711 1.0402 15.1823 2.92891 17.0711 4.81762 18.9598 7.32891 20 10 20 12.6711 20 15.1823 18.9598 17.0711 17.0711 18.9598 15.1824 20 12.6711 20 10 20 7.32891 18.9598 4.81766 17.0711 2.92891ZM16.6568 3.34324C17.7454 4.43184 18.5339 5.74027 18.9822 7.16824 18.4928 6.53004 17.8342 5.94305 17.02 5.43039 16.5195 5.11531 15.9753 4.83832 15.3966 4.6009 15.3952 4.59711 15.3941 4.59328 15.3925 4.58953 14.7498 3.02559 13.8597 1.80477 12.828 1.01664 14.2575 1.46477 15.5672 2.25371 16.6568 3.34324ZM3.34324 3.34324C4.43238 2.2541 5.74168 1.46531 7.17051 1.01707 6.55438 1.48902 5.98578 2.11832 5.48613 2.89254 5.3984 3.02844 5.4375 3.2098 5.57344 3.29754 5.7093 3.3852 5.8907 3.34625 5.97844 3.21023 7.07059 1.51793 8.49879 0.585938 10 0.585938 11.8248 0.585938 13.5301 1.97008 14.6329 4.31719 13.2205 3.84555 11.64 3.5952 10 3.5952 7.35266 3.5952 4.85953 4.24695 2.98 5.43035 2.16574 5.94301 1.50719 6.53004 1.01777 7.1682 1.46613 5.74027 2.25465 4.43184 3.34324 3.34324ZM3.29219 5.92621C3.61637 5.72207 3.96039 5.53484 4.32109 5.36469 3.84566 6.78816 3.5952 8.37531 3.5952 10 3.5952 11.64 3.84555 13.2205 4.31723 14.6329 1.96879 13.5305 0.585938 11.8286 0.585938 10 0.585938 8.47176 1.54703 7.025 3.29219 5.92621ZM3.34324 16.6568C2.25484 15.5684 1.46641 14.2601 1.01801 12.8324 1.80781 13.8649 3.03207 14.7544 4.60109 15.3971 4.83848 15.9757 5.11539 16.5198 5.43035 17.02 5.94301 17.8343 6.53004 18.4928 7.1682 18.9822 5.74027 18.5339 4.43184 17.7454 3.34324 16.6568ZM5.92621 16.7078C4.80086 14.9205 4.18113 12.5384 4.18113 10 4.18113 8.24438 4.48367 6.53715 5.05539 5.05121 6.52742 4.48441 8.22539 4.18113 10 4.18113 12.5383 4.18113 14.9205 4.80086 16.7078 5.92621 18.453 7.025 19.4141 8.47176 19.4141 10 19.4141 11.5282 18.453 12.975 16.7078 14.0738 16.3847 14.2772 16.042 14.4639 15.6826 14.6336 16.1544 13.221 16.4048 11.6402 16.4048 10 16.4048 9.63328 16.392 9.26352 16.3668 8.90102 16.3555 8.73961 16.2155 8.61785 16.0542 8.6291 15.8928 8.64031 15.771 8.78027 15.7823 8.94168 15.8065 9.29074 15.8189 9.6468 15.8189 10 15.8189 11.7758 15.5152 13.4749 14.9476 14.9476 13.4749 15.5152 11.7758 15.8189 10 15.8189 8.85488 15.8189 7.73574 15.6923 6.67375 15.4428 6.51625 15.4057 6.35855 15.5035 6.32152 15.661 6.28449 15.8185 6.38219 15.9762 6.53969 16.0132 7.64563 16.273 8.8098 16.4048 10 16.4048 11.6402 16.4048 13.221 16.1544 14.6336 15.6826 14.4639 16.042 14.2772 16.3847 14.0738 16.7078 12.975 18.453 11.5282 19.4141 10 19.4141 8.47176 19.4141 7.025 18.453 5.92621 16.7078ZM16.6568 16.6568C15.5682 17.7454 14.2597 18.5339 12.8318 18.9822 13.47 18.4928 14.057 17.8342 14.5696 17.02 14.8844 16.5201 15.1611 15.9764 15.3984 15.3984 15.9764 15.1611 16.5201 14.8844 17.02 14.5696 17.8342 14.057 18.4928 13.4699 18.9822 12.8318 18.5339 14.2597 17.7454 15.5682 16.6568 16.6568Z" fill="#000000" fill-rule="nonzero" fill-opacity="1" transform="matrix(1 0 0 1.05 566 3252)"/><path d="M12.8762 7.90941C12.1199 7.90941 11.5046 8.52469 11.5046 9.28094L11.5046 10.719C11.5046 11.4752 12.1199 12.0905 12.8762 12.0905 13.6324 12.0905 14.2477 11.4752 14.2477 10.719L14.2477 9.28094C14.2477 8.52469 13.6324 7.90941 12.8762 7.90941ZM13.6618 10.719C13.6618 11.1522 13.3094 11.5046 12.8762 11.5046 12.443 11.5046 12.0906 11.1522 12.0906 10.719L12.0906 9.28098C12.0906 8.84777 12.443 8.49539 12.8762 8.49539 13.3094 8.49539 13.6618 8.84777 13.6618 9.28098L13.6618 10.719Z" fill="#000000" fill-rule="nonzero" fill-opacity="1" transform="matrix(1 0 0 1.05 566 3252)"/><path d="M9.64047 9.3475C9.34891 9.3475 9.07852 9.43922 8.85605 9.59496 8.88008 8.98461 9.38387 8.49539 10 8.49539 10.1618 8.49539 10.293 8.36426 10.293 8.20242 10.293 8.04059 10.1618 7.90945 10 7.90945 9.04547 7.90945 8.26898 8.68598 8.26898 9.64047L8.26898 10.719C8.26898 11.4753 8.88422 12.0905 9.64047 12.0905 10.3967 12.0905 11.012 11.4753 11.012 10.719 11.012 9.96277 10.3967 9.3475 9.64047 9.3475ZM9.64047 11.5046C9.2073 11.5046 8.85492 11.1523 8.85492 10.7191 8.85492 10.2859 9.2073 9.93348 9.64047 9.93348 10.0737 9.93348 10.4261 10.2859 10.4261 10.7191 10.4261 11.1523 10.0737 11.5046 9.64047 11.5046Z" fill="#000000" fill-rule="nonzero" fill-opacity="1" transform="matrix(1 0 0 1.05 566 3252)"/><path d="M7.33227 10C7.60422 9.78133 7.77633 9.45949 7.77633 9.10117 7.77633 8.44406 7.19723 7.90941 6.48543 7.90941 6.08148 7.90941 5.70852 8.07879 5.46215 8.3741 5.35852 8.49836 5.37516 8.68309 5.49941 8.78672 5.62363 8.89043 5.80836 8.87367 5.91203 8.74945 6.04477 8.59031 6.25914 8.49531 6.48543 8.49531 6.87414 8.49531 7.19039 8.76711 7.19039 9.10117 7.19039 9.43524 6.87414 9.70699 6.48543 9.70699 6.32359 9.70699 6.19246 9.83813 6.19246 9.99996 6.19246 10.1618 6.32359 10.2929 6.48543 10.2929 6.87414 10.2929 7.19039 10.5647 7.19039 10.8988 7.19039 11.2329 6.87414 11.5046 6.48543 11.5046 6.25852 11.5046 6.04383 11.4092 5.91117 11.2494 5.80777 11.1249 5.62305 11.1078 5.49859 11.2112 5.3741 11.3145 5.35699 11.4993 5.46035 11.6237 5.70672 11.9204 6.08031 12.0906 6.48543 12.0906 7.19723 12.0906 7.77633 11.5559 7.77633 10.8988 7.77633 10.5405 7.60422 10.2187 7.33227 10Z" fill="#000000" fill-rule="nonzero" fill-opacity="1" transform="matrix(1 0 0 1.05 566 3252)"/><path d="M15.0333 6.11184C14.4753 6.11184 14.0213 6.56582 14.0213 7.12383 14.0213 7.68184 14.4753 8.13582 15.0333 8.13582 15.5913 8.13582 16.0453 7.68184 16.0453 7.12383 16.0453 6.56582 15.5913 6.11184 15.0333 6.11184ZM15.0333 7.54988C14.7983 7.54988 14.6072 7.35875 14.6072 7.12383 14.6072 6.88891 14.7984 6.69777 15.0333 6.69777 15.2682 6.69777 15.4593 6.88891 15.4593 7.12383 15.4593 7.35875 15.2682 7.54988 15.0333 7.54988Z" fill="#000000" fill-rule="nonzero" fill-opacity="1" transform="matrix(1 0 0 1.05 566 3252)"/></g></g></g></g></g></svg>