<svg width="17" height="19" xmlns="http://www.w3.org/2000/svg" xmlns:xlink="http://www.w3.org/1999/xlink" xml:space="preserve" overflow="hidden"><defs><clipPath id="clip0"><path d="M152 4995.48C152 4994.66 152.66 4994 153.475 4994L167.525 4994C168.34 4994 169 4994.66 169 4995.48L169 5009.52C169 5010.34 168.34 5011 167.525 5011L153.475 5011C152.66 5011 152 5010.34 152 5009.52Z" fill-rule="evenodd" clip-rule="evenodd"/></clipPath></defs><g transform="translate(-152 -4993)"><g><g clip-path="url(#clip0)"><g><g><path d="M167.774 4994 153.226 4994C152.549 4994 152 4994.55 152 4995.23L152 5009.77C152 5010.45 152.549 5011 153.226 5011L167.774 5011C168.451 5011 169 5010.45 169 5009.77L169 4995.23C169 4994.55 168.451 4994 167.774 4994ZM158.03 5006.85 155.96 5006.85 155.96 5000.62 158.03 5000.62ZM156.995 4999.77 156.981 4999.77C156.287 4999.77 155.838 4999.29 155.838 4998.7 155.838 4998.08 156.301 4997.62 157.009 4997.62 157.717 4997.62 158.153 4998.08 158.166 4998.7 158.166 4999.29 157.717 4999.77 156.995 4999.77ZM165.494 5006.85 163.425 5006.85 163.425 5003.52C163.425 5002.68 163.125 5002.11 162.376 5002.11 161.804 5002.11 161.463 5002.49 161.314 5002.87 161.259 5003 161.246 5003.19 161.246 5003.37L161.246 5006.85 159.176 5006.85C159.176 5006.85 159.203 5001.21 159.176 5000.62L161.246 5000.62 161.246 5001.5C161.521 5001.08 162.013 5000.48 163.111 5000.48 164.473 5000.48 165.494 5001.37 165.494 5003.28Z" fill="#FFC100" fill-rule="nonzero" fill-opacity="1"/></g></g></g></g></g></svg>