<svg width="163" height="40" xmlns="http://www.w3.org/2000/svg" xmlns:xlink="http://www.w3.org/1999/xlink" xml:space="preserve" overflow="hidden"><g transform="translate(-50 -8)"><g><g><g><g><path d="M59.3637 153.515C58.7292 153.515 58.2058 153.361 57.8167 153.051 57.0862 152.47 56.8639 151.379 57.1736 149.897L57.1802 149.866 66.1166 143.577C66.7528 143.129 67.4105 142.485 67.9211 141.811L72.9121 135.216C73.9015 133.909 75.3316 132.837 76.1677 132.777 76.384 132.761 76.5545 132.812 76.6733 132.929 77.6792 133.921 77.4814 136.078 76.1304 138.848 73.5233 144.193 67.4058 150.395 62.4935 152.672 61.2857 153.233 60.2228 153.515 59.3637 153.515ZM57.3258 149.962C57.0391 151.364 57.2435 152.388 57.9176 152.924 58.7832 153.613 60.3842 153.472 62.4255 152.525 67.3089 150.261 73.3917 144.093 75.9848 138.777 77.3031 136.074 77.5125 133.985 76.5595 133.045 76.4755 132.962 76.3479 132.927 76.1793 132.939 75.3842 132.997 74.0057 134.04 73.0411 135.314L68.0502 141.909C67.53 142.596 66.8592 143.252 66.2098 143.71L57.3258 149.962Z" fill="#FACB3D" fill-rule="evenodd" fill-opacity="1" transform="matrix(1 0 0 1.00082 1.34724 -116.335)"/><path d="M58.8968 153.672C58.1453 153.672 57.54 153.479 57.1158 153.093 56.3659 152.411 56.2094 151.181 56.6632 149.535L56.6716 149.505 66.0682 143.533C66.7374 143.108 67.4448 142.472 68.0089 141.789L73.5244 135.111C74.6168 133.788 76.1175 132.759 76.9616 132.774 77.1799 132.777 77.345 132.849 77.4528 132.988 78.3607 134.155 77.9776 136.471 76.4019 139.342 73.3569 144.891 66.76 151.035 61.6962 153.039 60.6298 153.461 59.6833 153.672 58.8968 153.672ZM56.8103 149.609C56.384 151.176 56.5268 152.338 57.2237 152.972 58.0444 153.719 59.6118 153.689 61.6373 152.888 66.6714 150.896 73.2314 144.784 76.261 139.263 77.8037 136.452 78.1918 134.202 77.326 133.088 77.2498 132.99 77.1263 132.939 76.9593 132.937 76.1717 132.928 74.713 133.926 73.6483 135.215L68.1329 141.893 68.0708 141.841 68.1329 141.893C67.5584 142.589 66.8372 143.237 66.154 143.671L56.8103 149.609Z" fill="#FACB3D" fill-rule="evenodd" fill-opacity="1" transform="matrix(1 0 0 1.00082 1.34724 -116.335)"/><path d="M58.4804 153.672C57.5894 153.672 56.8945 153.432 56.4249 152.953 55.6534 152.165 55.5734 150.8 56.1936 149.004L56.2035 148.975 66.0943 143.455C66.7987 143.062 67.5595 142.447 68.1817 141.767L74.2623 135.121C75.4593 133.812 77.051 132.853 77.8865 132.936 78.1102 132.958 78.2726 133.051 78.3693 133.213 79.1715 134.547 78.589 136.993 76.7712 139.921 73.2532 145.589 66.1397 151.559 60.9139 153.23 59.9926 153.525 59.1767 153.672 58.4804 153.672ZM56.3362 149.086C55.7481 150.805 55.8185 152.103 56.5402 152.84 57.32 153.635 58.8555 153.72 60.8647 153.077 66.0592 151.416 73.1332 145.476 76.6339 139.836 78.4188 136.961 79.0009 134.577 78.2309 133.296 78.1618 133.18 78.0405 133.114 77.8705 133.097 77.0834 133.018 75.5479 133.954 74.3816 135.229L68.3008 141.876 68.2413 141.821 68.3008 141.876C67.6676 142.568 66.892 143.195 66.173 143.596L56.3362 149.086Z" fill="#FACB3D" fill-rule="evenodd" fill-opacity="1" transform="matrix(1 0 0 1.00082 1.34724 -116.335)"/><path d="M58.1259 153.672C57.0572 153.672 56.2462 153.373 55.7363 152.781 54.948 151.865 54.9579 150.339 55.7649 148.368L55.7766 148.34 66.1249 143.275C66.8618 142.915 67.6745 142.318 68.3547 141.637L75.0014 134.985C76.3172 133.668 77.9475 132.793 78.7925 132.949 79.021 132.991 79.1855 133.112 79.2686 133.298 79.9502 134.821 79.1556 137.422 77.0886 140.431 73.0842 146.261 65.4661 152.08 60.1066 153.402 59.3739 153.582 58.7113 153.672 58.1259 153.672ZM55.9029 148.458C55.1319 150.355 55.1165 151.813 55.8587 152.675 56.6056 153.542 58.0612 153.739 60.0679 153.244 65.3944 151.931 72.9702 146.142 76.9553 140.339 78.9897 137.377 79.7791 134.835 79.1211 133.364 79.0599 133.227 78.9394 133.141 78.7631 133.108 77.9786 132.964 76.376 133.838 75.1158 135.1L68.469 141.751 68.4119 141.694 68.469 141.751C67.7768 142.444 66.9483 143.053 66.1959 143.421L55.9029 148.458Z" fill="#FACB3D" fill-rule="evenodd" fill-opacity="1" transform="matrix(1 0 0 1.00082 1.34724 -116.335)"/><path d="M57.8415 153.672C56.5521 153.672 55.5992 153.302 55.0484 152.578 54.2502 151.528 54.3646 149.85 55.3793 147.724L55.3925 147.696 66.1603 143.218C66.9267 142.899 67.7897 142.333 68.5279 141.664L68.5824 141.723 68.5279 141.664 75.7403 135.126C77.1456 133.852 78.8382 133.059 79.6785 133.283 79.9174 133.347 80.08 133.493 80.1487 133.708 80.6947 135.409 79.6756 138.131 77.3529 141.174 72.8488 147.076 64.7392 152.625 59.2753 153.543 58.76 153.629 58.2812 153.672 57.8415 153.672ZM55.5124 147.821C54.5516 149.847 54.4323 151.501 55.1776 152.481 55.8774 153.401 57.2848 153.714 59.2483 153.384 64.6774 152.472 72.7411 146.951 77.2237 141.077 79.5142 138.076 80.5241 135.408 79.9944 133.757 79.9424 133.595 79.8222 133.488 79.6366 133.439 78.8596 133.232 77.1951 134.025 75.8493 135.245L68.6369 141.783C67.8857 142.464 67.0058 143.041 66.2226 143.367L55.5124 147.821Z" fill="#FACB3D" fill-rule="evenodd" fill-opacity="1" transform="matrix(1 0 0 1.00082 1.34724 -116.335)"/><path d="M57.7697 153.672C56.2123 153.672 55.0916 153.21 54.504 152.318 53.7213 151.131 53.9617 149.236 55.1806 146.983L55.1955 146.955 66.2813 143.121C67.0702 142.848 67.9765 142.316 68.768 141.661L76.5025 135.262C77.9798 134.039 79.7189 133.335 80.5457 133.624 80.7964 133.712 80.9562 133.889 81.0075 134.137 81.4002 136.027 80.151 138.874 77.5802 141.948 72.5912 147.914 64.0513 153.158 58.5436 153.637 58.2751 153.661 58.0167 153.672 57.7697 153.672ZM55.3078 147.087C54.1314 149.273 53.8935 151.099 54.6388 152.23 55.2851 153.211 56.6307 153.642 58.5296 153.477 64.0005 153.001 72.491 147.783 77.4563 141.845 79.9953 138.809 81.2321 136.011 80.8495 134.169 80.8097 133.977 80.6895 133.845 80.4925 133.776 79.7141 133.505 78.043 134.196 76.6054 135.385L68.8709 141.785C68.0653 142.452 67.1408 142.994 66.3342 143.273L55.3078 147.087Z" fill="#FACB3D" fill-rule="evenodd" fill-opacity="1" transform="matrix(1 0 0 1.00082 1.34724 -116.335)"/><path d="M57.6718 153.672C57.6707 153.672 57.67 153.672 57.669 153.672 55.7685 153.672 54.4348 153.088 53.8121 151.984 53.0427 150.619 53.4248 148.538 54.8881 146.124L54.905 146.097 66.3268 142.977C67.1393 142.755 68.092 142.262 68.9404 141.625L77.2355 135.395C78.8085 134.214 80.5541 133.618 81.3868 133.979 81.6535 134.094 81.8108 134.306 81.8419 134.592 82.0683 136.683 80.5703 139.659 77.732 142.759 72.2209 148.777 63.2227 153.672 57.6718 153.672ZM55.0102 146.236C53.5921 148.586 53.2168 150.598 53.9534 151.904 54.5456 152.954 55.8305 153.51 57.669 153.51 57.6698 153.51 57.6711 153.51 57.6718 153.51 63.1833 153.51 72.1274 148.639 77.6123 142.65 80.4193 139.584 81.9022 136.654 81.6807 134.61 81.6559 134.382 81.5355 134.219 81.3224 134.127 80.5522 133.793 78.8373 134.394 77.3331 135.524L69.0379 141.754 68.9892 141.69 69.0379 141.754C68.1737 142.403 67.2011 142.906 66.3697 143.133L55.0102 146.236Z" fill="#FACB3D" fill-rule="evenodd" fill-opacity="1" transform="matrix(1 0 0 1.00082 1.34724 -116.335)"/><path d="M57.8104 153.672C57.4922 153.672 57.1849 153.658 56.8878 153.63 55.0742 153.456 53.8234 152.741 53.2705 151.564 52.5397 150.007 53.078 147.744 54.7866 145.189L54.8052 145.161 66.3925 142.858C67.2162 142.695 68.2022 142.251 69.0976 141.64L77.8565 135.666C79.4725 134.564 81.2365 134.072 82.051 134.497 82.3332 134.644 82.4857 134.896 82.4919 135.225 82.5348 137.511 80.7934 140.596 77.714 143.689 72.0537 149.374 63.3863 153.672 57.8104 153.672ZM54.9017 145.308C53.2408 147.801 52.7132 149.997 53.4163 151.495 53.9435 152.617 55.1491 153.3 56.9032 153.468 62.3599 153.993 71.6461 149.554 77.6002 143.574 80.6487 140.512 82.3728 137.47 82.3307 135.228 82.3257 134.958 82.2066 134.761 81.9769 134.641 81.2242 134.248 79.4916 134.747 77.9468 135.8L69.1881 141.774 69.1429 141.707 69.1881 141.774C68.2754 142.397 67.2679 142.85 66.4238 143.018L54.9017 145.308Z" fill="#FACB3D" fill-rule="evenodd" fill-opacity="1" transform="matrix(1 0 0 1.00082 1.34724 -116.335)"/><path d="M57.9801 153.672C57.2643 153.672 56.593 153.613 55.9755 153.489 54.2315 153.141 53.0548 152.294 52.5721 151.041 51.8945 149.283 52.6156 146.847 54.6025 144.183L54.6232 144.155 66.4535 142.769C67.2936 142.67 68.3213 142.285 69.2727 141.71L78.583 136.088C80.2763 135.066 82.0295 134.697 82.848 135.191 83.1516 135.374 83.2996 135.669 83.2759 136.044 83.1198 138.516 81.1042 141.681 77.7457 144.729 71.9528 149.986 63.6112 153.672 57.9801 153.672ZM54.7118 144.308C52.7751 146.914 52.0691 149.284 52.7237 150.983 53.1852 152.182 54.3208 152.993 56.0074 153.331 61.4381 154.416 71.1406 150.504 77.6363 144.609 80.964 141.59 82.9603 138.464 83.114 136.034 83.1338 135.719 83.016 135.482 82.7638 135.33 82.0077 134.873 80.2849 135.25 78.6673 136.227L69.3567 141.848C68.3862 142.435 67.3348 142.829 66.4725 142.93L54.7118 144.308Z" fill="#FACB3D" fill-rule="evenodd" fill-opacity="1" transform="matrix(1 0 0 1.00082 1.34724 -116.335)"/><path d="M58.417 153.672C57.2149 153.672 56.1188 153.528 55.1694 153.226 53.512 152.699 52.4252 151.711 52.0264 150.368 51.4374 148.385 52.3566 145.775 54.6146 143.018L54.6378 142.989 66.5465 142.605C67.3911 142.578 68.4476 142.257 69.4454 141.724L79.212 136.508C80.9295 135.591 82.6876 135.339 83.4875 135.896 83.8126 136.123 83.9529 136.468 83.8935 136.894 83.5222 139.558 81.2384 142.798 77.6272 145.785 71.8479 150.565 64.0015 153.672 58.417 153.672ZM54.717 143.149C52.5109 145.853 51.6107 148.399 52.1819 150.322 52.5648 151.611 53.6149 152.562 55.2187 153.072 60.5325 154.762 70.5384 151.437 77.5237 145.66 81.104 142.699 83.367 139.496 83.7328 136.872 83.784 136.505 83.6701 136.221 83.3946 136.029 82.6549 135.514 80.9279 135.775 79.2886 136.651L69.5219 141.867 69.4837 141.796 69.5219 141.867C68.5031 142.411 67.4206 142.739 66.5518 142.767L54.717 143.149Z" fill="#FACB3D" fill-rule="evenodd" fill-opacity="1" transform="matrix(1 0 0 1.00082 1.34724 -116.335)"/><path d="M59.127 153.829C57.3467 153.829 55.7591 153.553 54.4832 152.968 52.924 152.254 51.9407 151.111 51.6397 149.662 51.1774 147.438 52.3067 144.657 54.8193 141.832L54.8454 141.802 66.6727 142.516C67.5103 142.567 68.5834 142.318 69.617 141.834L79.7398 137.091C81.4569 136.286 83.1965 136.158 83.9708 136.78 84.3168 137.058 84.4462 137.46 84.3447 137.945 83.7465 140.803 81.2047 144.107 77.3711 147.011 71.7556 151.263 64.5486 153.829 59.127 153.829ZM54.9134 141.97C52.4541 144.745 51.3479 147.464 51.7976 149.628 52.0876 151.024 53.0395 152.128 54.55 152.82 59.6625 155.162 69.857 152.498 77.2743 146.881 81.0772 144.001 83.5966 140.731 84.1869 137.911 84.276 137.485 84.1696 137.148 83.8704 136.907 83.142 136.323 81.4714 136.459 79.808 137.238L69.6848 141.982C68.628 142.477 67.5262 142.731 66.6631 142.679L54.9134 141.97Z" fill="#FACB3D" fill-rule="evenodd" fill-opacity="1" transform="matrix(1 0 0 1.00082 1.34724 -116.335)"/><path d="M59.9098 153.986C57.4272 153.987 55.2514 153.521 53.652 152.539 52.1783 151.634 51.2985 150.332 51.1076 148.774 50.8077 146.324 52.1731 143.415 54.9524 140.584L54.9818 140.554 66.7369 142.449C67.5681 142.583 68.6607 142.417 69.7338 141.994L80.2566 137.845C82.0004 137.157 83.6856 137.16 84.4499 137.851 84.8206 138.186 84.9366 138.65 84.7849 139.192 83.9404 142.214 81.1158 145.532 77.0356 148.296 71.6592 151.937 65.1132 153.986 59.9098 153.986ZM55.0387 140.727C52.3141 143.513 50.9755 146.362 51.2682 148.754 51.453 150.262 52.3065 151.523 53.7364 152.401 58.6398 155.41 69.0508 153.508 76.9451 148.161 80.994 145.419 83.7947 142.134 84.6291 139.149 84.7631 138.669 84.6636 138.262 84.3415 137.971 83.6217 137.32 82.0041 137.33 80.3159 137.996L69.7929 142.145C68.6935 142.578 67.5702 142.747 66.7112 142.609L55.0387 140.727Z" fill="#FACB3D" fill-rule="evenodd" fill-opacity="1" transform="matrix(1 0 0 1.00082 1.34724 -116.335)"/><path d="M61.0013 154.144C57.7108 154.144 54.8533 153.416 52.965 151.908 51.5801 150.802 50.8163 149.327 50.7566 147.644 50.6618 144.978 52.2776 141.973 55.3061 139.182L55.3393 139.151 66.912 142.299C67.7294 142.521 68.8329 142.446 69.9402 142.092L80.8072 138.62C82.5625 138.059 84.1806 138.188 84.9298 138.948 85.3255 139.35 85.4233 139.881 85.2129 140.484 84.1068 143.655 80.9981 146.958 76.6845 149.546 71.6744 152.553 65.8655 154.143 61.0013 154.144ZM55.3834 139.33C52.411 142.08 50.8259 145.029 50.9186 147.639 50.9767 149.273 51.7195 150.706 53.0666 151.782 57.6976 155.482 68.2548 154.417 76.6007 149.408 80.8825 146.839 83.9657 143.567 85.0597 140.432 85.2488 139.89 85.1638 139.416 84.8138 139.061 84.1184 138.354 82.5282 138.239 80.8569 138.773L69.9898 142.245C68.8535 142.608 67.7158 142.685 66.8692 142.454L55.3834 139.33Z" fill="#FACB3D" fill-rule="evenodd" fill-opacity="1" transform="matrix(1 0 0 1.00082 1.34724 -116.335)"/><path d="M62.1507 154.615C57.9836 154.615 54.3718 153.52 52.2654 151.318 50.9797 149.974 50.3512 148.285 50.4482 146.434 50.6001 143.53 52.4674 140.42 55.7062 137.677L55.7434 137.645 66.9718 142.175C67.7635 142.495 68.8657 142.517 69.9956 142.236L81.0993 139.479C82.8178 139.052 84.389 139.313 85.1026 140.143 85.5143 140.621 85.5904 141.252 85.3168 141.918 83.9405 145.269 80.5626 148.575 76.0493 150.99 71.541 153.401 66.5382 154.615 62.1507 154.615ZM55.7734 137.832C52.5919 140.538 50.7586 143.595 50.6095 146.443 50.5151 148.247 51.1281 149.894 52.3821 151.206 56.6598 155.678 67.2426 155.517 75.9731 150.847 80.454 148.45 83.8049 145.173 85.1674 141.856 85.42 141.241 85.3553 140.685 84.9801 140.248 84.306 139.465 82.7982 139.224 81.1383 139.636L70.0346 142.394 70.0153 142.315 70.0346 142.394C68.872 142.682 67.7338 142.657 66.9115 142.326L55.7734 137.832Z" fill="#FACB3D" fill-rule="evenodd" fill-opacity="1" transform="matrix(1 0 0 1.00082 1.34724 -116.335)"/><path d="M63.4899 155.086C58.3989 155.086 53.9729 153.513 51.7401 150.489 48.6826 146.348 50.5319 140.568 56.3419 136.106L56.3837 136.074 67.1517 142.028C67.9097 142.447 69.0016 142.575 70.1479 142.379L81.4211 140.454C83.1156 140.165 84.5929 140.548 85.2764 141.453 85.7066 142.023 85.7516 142.74 85.4029 143.473 83.7452 146.959 80.1022 150.207 75.4079 152.385 71.4912 154.203 67.3037 155.086 63.4899 155.086ZM56.3982 136.266C50.6966 140.666 48.8761 146.338 51.8699 150.393 53.7246 152.905 57.1961 154.483 61.6453 154.836 66.1046 155.191 70.9681 154.268 75.3401 152.239 80.0008 150.076 83.6156 146.855 85.2573 143.404 85.5833 142.718 85.5456 142.077 85.1477 141.55 84.5106 140.707 83.0582 140.339 81.4483 140.614L70.1749 142.539 70.1614 142.459 70.1749 142.539C68.9933 142.74 67.8631 142.606 67.0738 142.169L56.3982 136.266Z" fill="#FACB3D" fill-rule="evenodd" fill-opacity="1" transform="matrix(1 0 0 1.00082 1.34724 -116.335)"/><path d="M64.8275 155.872C58.7713 155.872 53.4773 153.665 51.2247 149.669 48.5346 144.897 50.8861 138.815 57.0759 134.535L57.1231 134.502 67.3639 141.978C68.0838 142.504 69.1624 142.746 70.3232 142.643L70.3305 142.724 70.3232 142.643 81.7536 141.628C83.3962 141.482 84.8146 141.996 85.4541 142.968 85.8996 143.645 85.9053 144.461 85.4702 145.264 83.5105 148.882 79.5877 152.056 74.7078 153.971 71.4253 155.259 68.0205 155.872 64.8275 155.872ZM57.1208 134.701C51.0386 138.929 48.7257 144.907 51.3656 149.59 52.9998 152.489 56.3303 154.529 60.7436 155.334 65.1669 156.141 70.1047 155.603 74.6487 153.82 79.4936 151.919 83.386 148.772 85.328 145.187 85.7334 144.439 85.7302 143.682 85.319 143.057 84.7122 142.134 83.3514 141.649 81.7681 141.789L70.3377 142.804C69.1383 142.911 68.0197 142.657 67.2685 142.109L57.1208 134.701Z" fill="#FACB3D" fill-rule="evenodd" fill-opacity="1" transform="matrix(1 0 0 1.00082 1.34724 -116.335)"/><path d="M66.0143 156.658C63.8244 156.658 61.6791 156.36 59.6679 155.761 55.2978 154.461 52.1236 151.911 50.7299 148.58 48.4705 143.18 51.3403 136.841 57.8712 132.807L57.9242 132.774 67.4685 141.814C68.1388 142.449 69.1888 142.804 70.3537 142.81L70.3539 142.891 70.3537 142.81 81.8199 142.794C81.8226 142.794 81.8256 142.794 81.8282 142.794 83.4011 142.794 84.7409 143.436 85.3264 144.472 85.7769 145.27 85.7335 146.187 85.2041 147.056 82.9385 150.777 78.7575 153.832 73.7328 155.439 71.1955 156.25 68.5744 156.658 66.0143 156.658ZM57.9033 132.977C51.4802 136.97 48.6575 143.209 50.8792 148.518 52.2537 151.804 55.3914 154.321 59.7142 155.607 64.0452 156.895 69.006 156.781 73.6834 155.285 78.6713 153.69 82.8202 150.66 85.066 146.973 85.5635 146.155 85.6059 145.296 85.1854 144.552 84.6286 143.566 83.3426 142.955 81.8284 142.955 81.8256 142.955 81.8229 142.955 81.8201 142.955L70.354 142.972C70.3512 142.972 70.3484 142.972 70.3457 142.972 69.1446 142.972 68.0559 142.593 67.3571 141.931L57.9033 132.977Z" fill="#FACB3D" fill-rule="evenodd" fill-opacity="1" transform="matrix(1 0 0 1.00082 1.34724 -116.335)"/><path d="M67.0961 157.758C64.1589 157.758 61.2938 157.195 58.7098 156.087 54.4692 154.266 51.5298 151.206 50.4329 147.47 48.655 141.416 52.068 134.828 58.9257 131.078L58.9848 131.046 67.7061 141.736C68.3187 142.487 69.3343 142.98 70.4925 143.088L81.9194 144.153C83.4474 144.296 84.6787 145.053 85.2133 146.179 85.6499 147.1 85.5432 148.155 84.9205 149.074 82.3378 152.888 77.9044 155.801 72.7567 157.066 70.8766 157.528 68.9718 157.758 67.0961 157.758ZM58.9444 131.252C52.1948 134.97 48.8373 141.462 50.5882 147.425 51.6712 151.114 54.5784 154.138 58.7738 155.938 62.9759 157.742 67.9283 158.087 72.718 156.91 77.8273 155.654 82.2259 152.766 84.7863 148.984 85.3852 148.1 85.4848 147.129 85.067 146.248 84.5574 145.174 83.375 144.451 81.9044 144.314L70.4774 143.249C69.2763 143.137 68.2204 142.623 67.5806 141.838L58.9444 131.252Z" fill="#FACB3D" fill-rule="evenodd" fill-opacity="1" transform="matrix(1 0 0 1.00082 1.34724 -116.335)"/><path d="M67.8587 159.015C64.2193 159.015 60.6908 158.091 57.6558 156.31 53.6053 153.932 50.9544 150.333 50.1912 146.175 48.9545 139.438 52.916 132.612 60.049 129.191L60.1139 129.16 67.8417 141.595C68.3849 142.469 69.3501 143.1 70.4898 143.327L81.7418 145.565C83.1882 145.853 84.3282 146.746 84.7912 147.954 85.202 149.025 85.0203 150.201 84.2933 151.179 81.3971 155.075 76.7413 157.819 71.5198 158.705 70.2965 158.912 69.0714 159.015 67.8587 159.015ZM60.0536 129.368C53.0279 132.768 49.1302 139.502 50.3496 146.146 51.1042 150.257 53.7277 153.817 57.7372 156.17 61.7508 158.526 66.6357 159.37 71.4929 158.545 76.6739 157.666 81.2924 154.946 84.1639 151.082 84.8575 150.149 85.0313 149.03 84.6408 148.012 84.1977 146.856 83.1022 146.001 81.7105 145.724L70.4585 143.485C69.2753 143.25 68.2716 142.592 67.7048 141.68L60.0536 129.368Z" fill="#FACB3D" fill-rule="evenodd" fill-opacity="1" transform="matrix(1 0 0 1.00082 1.34724 -116.335)"/><path d="M68.446 160.586C64.1193 160.586 59.9659 159.197 56.5938 156.595 52.7594 153.636 50.4277 149.487 50.0281 144.913 49.3808 137.502 53.9279 130.488 61.3435 127.461L61.4145 127.432 61.4472 127.501 68.0452 141.636C68.5117 142.636 69.4202 143.412 70.538 143.766L81.574 147.261C82.9448 147.695 83.9925 148.727 84.3765 150.021 84.7417 151.253 84.4705 152.546 83.6321 153.57 80.4023 157.516 75.5162 160.044 70.2263 160.507 69.6306 160.561 69.0368 160.586 68.446 160.586ZM61.3334 127.64C54.0261 130.656 49.55 137.582 50.189 144.899 50.5845 149.427 52.8942 153.535 56.6925 156.467 60.4928 159.4 65.295 160.778 70.2122 160.347 75.459 159.887 80.3049 157.379 83.5073 153.467 84.311 152.485 84.5714 151.246 84.2218 150.067 83.853 148.824 82.8449 147.833 81.5251 147.415L70.4893 143.92C69.3286 143.552 68.3844 142.745 67.8987 141.705L61.3334 127.64Z" fill="#FACB3D" fill-rule="evenodd" fill-opacity="1" transform="matrix(1 0 0 1.00082 1.34724 -116.335)"/><path d="M68.7801 162.157C63.7884 162.157 59.0733 160.195 55.5033 156.63 51.9332 153.066 49.967 148.359 49.967 143.376 49.967 135.299 55.1199 128.144 62.7892 125.572L62.8659 125.546 68.2485 141.542C68.628 142.67 69.4683 143.597 70.5544 144.086L81.2718 148.914C82.5872 149.507 83.512 150.656 83.8092 152.068 84.103 153.462 83.7267 154.867 82.777 155.921 79.2068 159.883 74.1052 162.157 68.7801 162.157ZM62.7641 125.751C55.203 128.323 50.1289 135.395 50.1289 143.376 50.1289 148.316 52.0782 152.982 55.6177 156.516 59.1572 160.05 63.8318 161.995 68.7801 161.995 74.0593 161.995 79.1171 159.742 82.6566 155.813 83.5714 154.798 83.9338 153.445 83.6508 152.101 83.3643 150.74 82.4728 149.633 81.2052 149.061L70.4878 144.234C69.3608 143.726 68.4888 142.764 68.0952 141.594L62.7641 125.751Z" fill="#FACB3D" fill-rule="evenodd" fill-opacity="1" transform="matrix(1 0 0 1.00082 1.34724 -116.335)"/><text fill="#FFFFFF" fill-opacity="1" font-family="Montserrat ExtraBold,Montserrat ExtraBold_MSFontService,sans-serif" font-style="normal" font-variant="normal" font-weight="800" font-stretch="normal" font-size="64" text-anchor="start" direction="ltr" writing-mode="lr-tb" unicode-bidi="normal" text-decoration="none" transform="matrix(0.157129 0 0 0.157258 96.0833 26)">SKENUJEME</text><text fill="#FFFFFF" fill-opacity="1" font-family="Montserrat,Montserrat_MSFontService,sans-serif" font-style="normal" font-variant="normal" font-weight="400" font-stretch="normal" font-size="64" text-anchor="start" direction="ltr" writing-mode="lr-tb" unicode-bidi="normal" text-decoration="none" transform="matrix(0.157129 0 0 0.157258 161.619 26)">.sk</text><text fill="#FFFFFF" fill-opacity="1" font-family="Montserrat ExtraBold,Montserrat ExtraBold_MSFontService,sans-serif" font-style="normal" font-variant="normal" font-weight="800" font-stretch="normal" font-size="64" text-anchor="start" direction="ltr" writing-mode="lr-tb" unicode-bidi="normal" text-decoration="none" transform="matrix(0.157129 0 0 0.157258 95.99 39)">WESCAN</text><text fill="#FFFFFF" fill-opacity="1" font-family="Montserrat,Montserrat_MSFontService,sans-serif" font-style="normal" font-variant="normal" font-weight="400" font-stretch="normal" font-size="64" text-anchor="start" direction="ltr" writing-mode="lr-tb" unicode-bidi="normal" text-decoration="none" transform="matrix(0.157129 0 0 0.157258 144.602 39)">.</text><text fill="#FFFFFF" fill-opacity="1" font-family="Montserrat,Montserrat_MSFontService,sans-serif" font-style="normal" font-variant="normal" font-weight="400" font-stretch="normal" font-size="64" text-anchor="start" direction="ltr" writing-mode="lr-tb" unicode-bidi="normal" text-decoration="none" transform="matrix(0.157129 0 0 0.157258 146.762 39)">sk</text></g></g></g></g></g></svg>