<svg width="19" height="19" xmlns="http://www.w3.org/2000/svg" xmlns:xlink="http://www.w3.org/1999/xlink" xml:space="preserve" overflow="hidden"><g transform="translate(-726 -4941)"><g><g><g><g><path d="M739.787 4942 732.213 4942C731.489 4942 730.903 4942.59 730.903 4943.31L730.903 4958.69C730.903 4959.41 731.489 4960 732.213 4960L739.787 4960C740.51 4960 741.097 4959.41 741.097 4958.69L741.097 4943.31C741.097 4942.59 740.51 4942 739.787 4942ZM734.131 4942.8 737.87 4942.8C737.964 4942.8 738.041 4942.94 738.041 4943.11 738.041 4943.29 737.964 4943.43 737.87 4943.43L734.131 4943.43C734.036 4943.43 733.961 4943.29 733.961 4943.11 733.961 4942.94 734.036 4942.8 734.131 4942.8ZM736.001 4958.71C735.54 4958.71 735.164 4958.33 735.164 4957.87 735.164 4957.41 735.54 4957.03 736.001 4957.03 736.46 4957.03 736.836 4957.41 736.836 4957.87 736.836 4958.33 736.46 4958.71 736.001 4958.71ZM740.115 4955.84 731.885 4955.84 731.885 4944.21 740.115 4944.21 740.115 4955.84Z" fill="#FFC100" fill-rule="nonzero" fill-opacity="1"/></g></g></g></g></g></svg>