<svg width="16" height="15" xmlns="http://www.w3.org/2000/svg" xmlns:xlink="http://www.w3.org/1999/xlink" xml:space="preserve" overflow="hidden"><defs><clipPath id="clip0"><rect x="945" y="19" width="14" height="14"/></clipPath><clipPath id="clip1"><rect x="945" y="19" width="14" height="14"/></clipPath><clipPath id="clip2"><rect x="945" y="19" width="14" height="14"/></clipPath></defs><g transform="translate(-944 -18)"><g><g clip-path="url(#clip0)"><g clip-path="url(#clip1)"><g clip-path="url(#clip2)"><path d="M951.608 23.005C951.608 22.8993 951.694 22.8136 951.8 22.8136L954.331 22.8136C954.437 22.8136 954.522 22.8993 954.522 23.005 954.522 23.1107 954.437 23.1964 954.331 23.1964L951.8 23.1964C951.694 23.1964 951.608 23.1107 951.608 23.005ZM951.8 24.1281 955.798 24.1281C955.903 24.1281 955.989 24.0424 955.989 23.9367 955.989 23.831 955.903 23.7453 955.798 23.7453L951.8 23.7453C951.694 23.7453 951.608 23.831 951.608 23.9367 951.608 24.0424 951.694 24.1281 951.8 24.1281ZM955.798 24.6761 951.8 24.6761C951.694 24.6761 951.608 24.7618 951.608 24.8675 951.608 24.9732 951.694 25.0589 951.8 25.0589L955.798 25.0589C955.903 25.0589 955.989 24.9732 955.989 24.8675 955.989 24.7618 955.903 24.6761 955.798 24.6761ZM955.798 25.607 951.8 25.607C951.694 25.607 951.608 25.6927 951.608 25.7984 951.608 25.9041 951.694 25.9898 951.8 25.9898L955.798 25.9898C955.903 25.9898 955.989 25.9041 955.989 25.7984 955.989 25.6927 955.903 25.607 955.798 25.607ZM957.795 29.5257 957.795 31.2992C957.794 31.8807 957.323 32.3519 956.742 32.3526L948.753 32.3526C948.172 32.3519 947.701 31.8807 947.7 31.2992L947.7 26.706 945.066 24.4279C944.986 24.3588 944.977 24.2379 945.046 24.158 945.046 24.1579 945.046 24.1579 945.046 24.1579L948.89 19.7135C948.959 19.6335 949.08 19.6247 949.16 19.6938 949.16 19.6939 949.16 19.6939 949.16 19.6939L950.537 20.8852 953.018 19.7544C953.114 19.7105 953.227 19.7529 953.271 19.8491 953.271 19.8491 953.271 19.8492 953.271 19.8492L954.023 21.4989 955.209 21.4989C955.26 21.499 955.309 21.5191 955.345 21.555L956.872 23.082C956.908 23.1179 956.928 23.1666 956.928 23.2174L956.928 26.0051C957.925 25.8671 958.845 26.5637 958.983 27.5609 959.101 28.4143 958.606 29.2338 957.795 29.5257ZM956.545 26.1008 956.545 23.4088 955.552 23.4088C955.257 23.4085 955.018 23.1696 955.018 22.8748L955.018 21.8819 951.052 21.8819 951.052 25.7298 951.772 26.4335C951.935 26.5931 952.064 26.7061 952.235 26.7061L955.728 26.7061C955.938 26.4313 956.221 26.2215 956.545 26.1008ZM955.401 22.8748C955.401 22.9582 955.468 23.0258 955.552 23.0259L956.274 23.0259 955.401 22.1527ZM953.002 20.1822 950.595 21.2798C950.587 21.2837 950.58 21.2871 950.572 21.29L948.005 22.4603 949.225 25.1365 950.104 25.1365C950.343 25.1365 950.525 25.2449 950.669 25.3651L950.669 21.6904C950.669 21.5847 950.755 21.499 950.861 21.499L953.602 21.499ZM947.7 26.1998 947.7 26.0355C947.701 25.539 948.103 25.1368 948.6 25.1365L948.804 25.1365 947.577 22.4449C947.533 22.3487 947.576 22.2352 947.672 22.1914 947.672 22.1914 947.672 22.1913 947.672 22.1913L950.154 21.0599 949.054 20.1087 945.461 24.2637ZM957.412 29.618C956.416 29.7494 955.501 29.0481 955.37 28.0515 955.359 27.9716 955.354 27.8911 955.354 27.8106 955.354 27.5624 955.405 27.3168 955.503 27.089L952.235 27.089C951.895 27.089 951.669 26.8684 951.504 26.7073L950.732 25.9521C950.729 25.9489 950.725 25.9457 950.722 25.9422L950.568 25.7918C950.399 25.6273 950.276 25.5193 950.104 25.5193L948.6 25.5193C948.315 25.5194 948.084 25.7504 948.083 26.0355L948.083 31.2992C948.083 31.6693 948.383 31.9693 948.753 31.9697L956.742 31.9697C957.112 31.9693 957.412 31.6693 957.412 31.2992ZM958.617 27.8106C958.617 27.0152 957.973 26.3705 957.177 26.3704 956.382 26.3704 955.737 27.0152 955.737 27.8105 955.737 28.6059 956.382 29.2507 957.177 29.2507 957.177 29.2507 957.177 29.2507 957.177 29.2507 957.972 29.2498 958.616 28.6056 958.617 27.8106ZM958.152 27.0869C958.077 27.0122 957.956 27.0122 957.881 27.0869 957.881 27.0869 957.881 27.0869 957.881 27.0869L956.84 28.1282 956.473 27.7613C956.398 27.6865 956.277 27.6865 956.203 27.7613 956.128 27.836 956.128 27.9572 956.203 28.032L956.705 28.5342C956.78 28.609 956.901 28.609 956.976 28.5342 956.976 28.5342 956.976 28.5342 956.976 28.5342L958.152 27.3576C958.227 27.2829 958.227 27.1617 958.152 27.0869 958.152 27.0869 958.152 27.0869 958.152 27.0869ZM956.387 30.7746 949.108 30.7746C949.002 30.7746 948.916 30.8603 948.916 30.966 948.916 31.0717 949.002 31.1574 949.108 31.1574L956.387 31.1574C956.493 31.1574 956.579 31.0717 956.579 30.966 956.579 30.8603 956.493 30.7746 956.387 30.7746ZM949.108 29.85 950.975 29.85C951.081 29.85 951.166 29.7643 951.166 29.6586 951.166 29.5529 951.081 29.4672 950.975 29.4672L949.108 29.4672C949.002 29.4672 948.916 29.5529 948.916 29.6586 948.916 29.7643 949.002 29.85 949.108 29.85Z" fill="#FFFFFF" fill-rule="nonzero" fill-opacity="1"/></g></g></g></g></g></svg>