<svg width="22" height="24" xmlns="http://www.w3.org/2000/svg" xmlns:xlink="http://www.w3.org/1999/xlink" xml:space="preserve" overflow="hidden"><defs><clipPath id="clip0"><rect x="772" y="4552" width="22" height="24"/></clipPath><clipPath id="clip1"><rect x="772" y="4552" width="22" height="24"/></clipPath><clipPath id="clip2"><rect x="772" y="4552" width="22" height="23"/></clipPath><clipPath id="clip3"><rect x="772" y="4552" width="22" height="23"/></clipPath><clipPath id="clip4"><rect x="772" y="4552" width="22" height="23"/></clipPath></defs><g clip-path="url(#clip0)" transform="translate(-772 -4552)"><g clip-path="url(#clip1)"><g clip-path="url(#clip2)"><g clip-path="url(#clip3)"><g clip-path="url(#clip4)"><path d="M15.5824 8.70925C15.5824 5.72825 12.0138 3.20925 7.79075 3.20925 3.56767 3.20925-0.000916667 5.72825-0.000916667 8.70925-0.000916667 10.2382 0.986333 11.8507 2.48692 12.8141 2.28433 13.3522 1.61333 14.2322 1.12108 14.773 1.11192 14.7831 1.10275 14.7941 1.0945 14.8051 0.979 14.9408 0.91575 15.1085 0.91575 15.2845 0.91575 15.7016 1.265 16.0408 1.69308 16.0408 1.72242 16.0408 4.96008 15.6264 6.65958 14.1515 7.05192 14.19 7.425 14.2093 7.79075 14.2093 12.0138 14.2093 15.5824 11.6903 15.5824 8.70925ZM7.79075 13.2917C7.39475 13.2917 6.99142 13.2669 6.55417 13.2165 6.41667 13.2 6.281 13.2477 6.18292 13.343 5.15808 14.3385 3.02683 14.8766 2.08908 15.0572 2.57675 14.4788 3.42467 13.3696 3.46225 12.6124 3.4705 12.4392 3.38067 12.276 3.2285 12.1908 1.84525 11.4143 0.91575 10.0155 0.91575 8.70925 0.91575 6.26725 4.12867 4.12592 7.79075 4.12592 11.4528 4.12592 14.6657 6.26633 14.6657 8.70833 14.6657 11.1503 11.4528 13.2917 7.79075 13.2917Z" fill="#000000" fill-rule="nonzero" fill-opacity="1" transform="matrix(1 0 0 1.04545 772 4552)"/><path d="M19.514 15.5632C21.0137 14.5998 22.0009 12.9873 22.0009 11.4583 22.0009 9.15567 19.8009 7.01525 16.6494 6.25167 16.4028 6.19117 16.1553 6.34242 16.0958 6.589 16.0362 6.83558 16.1865 7.08308 16.4331 7.14267 19.1272 7.79533 21.0833 9.61033 21.0833 11.4583 21.0833 12.7637 20.1538 14.1634 18.7706 14.9398 18.6184 15.0242 18.5286 15.1883 18.5368 15.3615 18.5717 16.0756 19.3151 17.0958 19.9082 17.8026 18.9328 17.6156 16.8318 17.0793 15.8162 16.0921 15.7172 15.9968 15.5797 15.9482 15.4449 15.9656 15.0077 16.016 14.6034 16.0408 14.2083 16.0408 12.6876 16.0408 11.2264 15.6842 9.98158 15.0077 9.75883 14.8867 9.48108 14.9701 9.36008 15.1919 9.23908 15.4138 9.32158 15.6924 9.54433 15.8134 10.923 16.5623 12.5354 16.9583 14.2083 16.9583 14.5741 16.9583 14.9463 16.9391 15.3395 16.9006 17.039 18.3764 20.2767 18.7908 20.306 18.7908 20.735 18.7908 21.0833 18.4516 21.0842 18.0336 21.0842 17.8429 21.0091 17.6587 20.8789 17.5221 20.3995 16.9977 19.7193 16.1022 19.514 15.5632Z" fill="#000000" fill-rule="nonzero" fill-opacity="1" transform="matrix(1 0 0 1.04545 772 4552)"/></g></g></g></g></g></svg>